<svg width="112" height="52" viewBox="0 0 112 52" xmlns="http://www.w3.org/2000/svg"><g fill="#000" fill-rule="evenodd"><path d="M32.58 7.64l-3.965 19.576C28.203 28.84 26.355 30 24.18 30h-4.922c-2.174 0-4.022-1.159-4.433-2.784L10.882 7.707a38.921 38.921 0 0 0-3.168 1.067l.868 2.396a2.687 2.687 0 0 1-1.595 3.438 2.665 2.665 0 0 1-3.42-1.603L.161 3.6A2.687 2.687 0 0 1 1.757.163a2.665 2.665 0 0 1 3.42 1.603l.913 2.52A45.06 45.06 0 0 1 21.802 1.48c5.488 0 10.745.977 15.601 2.766l.898-2.48a2.665 2.665 0 0 1 3.42-1.603A2.687 2.687 0 0 1 43.318 3.6l-3.405 9.404a2.665 2.665 0 0 1-3.42 1.603 2.687 2.687 0 0 1-1.595-3.438l.893-2.468a38.924 38.924 0 0 0-3.21-1.061zm-5.467-1.132c-1.722-.23-3.48-.349-5.266-.349-1.868 0-3.706.13-5.504.382l2.73 13.28c.092.97.975 1.713 2.038 1.713h1.22c1.064 0 1.947-.743 2.038-1.713l2.744-13.313zM63.234 8.297h-4.61l-.527 1.467A1.867 1.867 0 0 1 56.34 11h-1.973a.933.933 0 0 1-.881-1.24l2.184-6.274a1.867 1.867 0 0 1 1.763-1.254h2.017a.933.933 0 0 1 .88 1.248l-.501 1.4h3.405V1.932c0-.515.418-.933.933-.933h2.871c.516 0 .934.418.934.933V4.88h8.957a.933.933 0 0 1 .87 1.27l-.369.954a1.867 1.867 0 0 1-1.74 1.194h-7.718v8.613h9.49a.933.933 0 0 1 .87 1.27l-.381.983a1.867 1.867 0 0 1-1.74 1.192h-8.24v5.92c0 .75-.448 1.427-1.138 1.72l-1.771.75-.51.23a.933.933 0 0 1-1.318-.85v-7.77h-9.3a.933.933 0 0 1-.934-.933v-1.579c0-.515.418-.933.933-.933h9.301V8.297zm28.158 12.065l2.868-6.222V8.002H93a.933.933 0 0 1-.933-.933V5.644c0-.515.418-.933.933-.933h1.26V3.039c0-.515.418-.933.933-.933h1.76c.516 0 .934.418.934.933v1.672h.39a.933.933 0 0 1 .87 1.273l-.589 1.504a.744.744 0 0 1-.671.472v2.493l.327.006a.933.933 0 0 1 .865 1.24l-1.192 3.418v8.507a2.8 2.8 0 0 1-.684 1.834l-1.687 1.945c-.36.415-.884.65-1.434.644l-1.53-.02a.933.933 0 0 1-.921-.933v-1.152c0-.511.412-.928.923-.933l1.72-.018v-3.88h-2.882v2.563a2.8 2.8 0 0 1-.74 1.896l-1.796 1.953a1.867 1.867 0 0 1-1.379.603l-3.266-.01a.933.933 0 0 1-.93-.933V3.333c0-.515.418-.933.933-.933h6.23c.516 0 .934.418.934.933l.014 17.029zm-4.723 4.6h1.279V5.804h-1.28v19.16zm13.43-.518h9.031a.933.933 0 0 1 .832 1.357l-.507.998a1.867 1.867 0 0 1-1.664 1.02h-7.692a.933.933 0 0 1-.933-.933v-1.508c0-.516.418-.934.933-.934zm7.727-17.657l-7.02.022a.933.933 0 0 1-.937-.934V4.476c0-.513.414-.93.928-.933l1.448-.009c.206-.401.403-.707.59-.917.188-.21.473-.385.858-.525.384-.14.836-.159 1.356-.056.52.103.855.27 1.005.504l.76.994 2.309.009a.933.933 0 0 1 .818 1.376l-.478.887c-.325.602-.953.979-1.637.981zm-1.103 1.23h1.222a.933.933 0 0 1 .932.989l-.802 13.273a.933.933 0 0 1-.931.877h-1.21a.933.933 0 0 1-.931-.989l.788-13.273a.933.933 0 0 1 .932-.878zm-3.807.876l.801 13.273a.933.933 0 0 1-.931.99h-1.223a.933.933 0 0 1-.932-.877l-.8-13.273a.933.933 0 0 1 .93-.99h1.224c.493 0 .901.385.931.877zM4.19 40.273c-.25.36-.526.666-.804.943h1.802c.056-.305.097-.61.125-.943H4.19zm.583 2.26H2.29v-1.317h.61l-.68-.845C2.86 39.816 3.415 39.026 3.9 38l1.303.291c-.097.25-.194.5-.305.721h3.73v1.261H6.671c-.028.333-.056.638-.097.943h2.44v1.317H6.283l-.042.125c1.026.527 1.885 1.04 2.592 1.566l-.818.818h5.324v5.975h-1.47v-.513H5.466v.513H4.01v-5.642c-.333.194-.68.388-1.04.568L2 44.765c1.414-.624 2.343-1.372 2.773-2.232zm.693 6.696h6.404v-.804H5.466v.804zm0-2.052h6.404v-.86H5.466v.86zm-.97-2.135h3.077c-.5-.443-1.095-.873-1.802-1.317a5.698 5.698 0 0 1-1.276 1.317zm4.893-5.988h4.963v5.309H9.389v-5.31zm3.549 4.047V40.33h-2.135V43.1h2.135zm5.212 3.244v.901h2.717v-.9H18.15zm2.717-1.192v-.956H18.15v.956h2.717zM18.15 48.44v2.564h-1.4V42.95h5.517v6.432c0 1.012-.471 1.525-1.414 1.525h-1.067l-.36-1.345.97.07c.305 0 .471-.194.471-.555v-.637H18.15zm8.803-4.104h-2.26c-1.012 0-1.51-.568-1.51-1.691v-4.436h1.427v1.58c1.386-.222 2.523-.443 3.41-.679l.471 1.275c-1.136.25-2.425.486-3.881.707v1.262c0 .443.152.68.485.68h1.58c.195 0 .333-.07.43-.209.097-.152.167-.596.194-1.344l1.345.443c-.11 1.165-.291 1.872-.54 2.093-.25.208-.638.32-1.151.32zm-2.343 3.216v1.58c0 .236.152.361.471.361h1.594c.195 0 .347-.07.43-.208.111-.152.18-.596.222-1.344l1.317.415c-.11 1.179-.305 1.872-.555 2.094-.25.208-.623.318-1.136.318h-2.274c-.998 0-1.497-.443-1.497-1.316v-4.658h1.428v1.455c1.275-.138 2.412-.36 3.41-.665l.471 1.29c-1.206.318-2.495.54-3.881.678zm-3.327-8.442c.804 1.095 1.414 2.038 1.858 2.842l-1.193.845a52.306 52.306 0 0 0-.443-.859c-1.442.222-3.161.402-5.143.513l-.388-1.206c.25-.083.47-.194.651-.36.832-.971 1.442-1.9 1.858-2.76l1.386.417c-.555 1.08-1.178 1.954-1.885 2.634a62.92 62.92 0 0 0 2.91-.264c-.221-.36-.47-.72-.72-1.095l1.109-.707zm20.572 5.088h-2.357v.762h2.482v1.11h-2.482v.692h2.912v1.165h-2.912v1.136h-1.372v-1.136h-2.093V46.76h2.093v-.693h-1.65V44.96h1.65v-.762h-1.553V43.06h1.553v-.79h-2.093v-1.137h2.093v-.804h-1.553v-1.137h1.553v-.956h1.372v.956h2.357v1.941h.749v1.137h-.749v1.927zm-2.357-3.868v.804h1.082v-.804h-1.082zm0 1.94v.79h1.082v-.79h-1.082zm-6.473-2.786c-.208.652-.444 1.29-.707 1.9v9.634H30.93v-7.112c-.25.36-.499.707-.776 1.068l-.485-1.553c1.026-1.497 1.774-3.257 2.26-5.281l1.303.61-.167.568h2.925v1.178c-.499 1.04-.998 1.913-1.47 2.634h1.553v.804c-.041 1.608-.29 2.995-.762 4.145.388.36.804.652 1.248.846.72.305 1.83.485 3.327.54.9 0 1.816-.027 2.758-.055l-.263 1.358H40.76c-2.523-.027-4.242-.29-5.157-.804a5.05 5.05 0 0 1-.929-.651 6.341 6.341 0 0 1-1.608 1.663l-.707-1.261a5.01 5.01 0 0 0 1.386-1.47c-.54-.804-.97-1.774-1.289-2.925l1.165-.457a7.12 7.12 0 0 0 .762 1.996c.236-.748.388-1.58.444-2.523h-1.969V43.31a20.496 20.496 0 0 0 1.608-2.634h-1.441v-1.192zm15.9-1.47l1.525.209a5.572 5.572 0 0 1-.333.956h3.868v5.74a7.588 7.588 0 0 0 1.206-2.052l1.234.776c-.666 1.206-1.47 2.26-2.44 3.16v2.829c0 .915-.43 1.372-1.29 1.372h-1.483l-.36-1.372 1.386.07c.208 0 .319-.14.319-.39v-1.358c-.208.139-.416.264-.624.402-1.94 1.151-4.27 1.955-6.987 2.426l-.651-1.303c3.327-.582 5.767-1.386 7.347-2.44h-7.43v-1.33h1.552v-6.53h2.814a8.07 8.07 0 0 0 .347-1.164zm-1.719 7.695h5.351v-1.012h-5.351v1.012zm0-2.232h5.351v-.887h-5.351v.887zm0-2.094h5.351v-.928h-5.351v.928zm20.808 2.205v2.98h-6.682v.652h7.333v3.77h-1.427v-.471h-5.906v.457h-1.456v-7.388h8.138zm-6.682 5.656h5.906v-.888h-5.906v.888zm0-3.813h5.282v-.693h-5.282v.693zm8.595-3.604v2.717h-1.414v-1.497h-9.15v1.497H57.95v-2.717h5.309c-.11-.25-.222-.471-.333-.68l1.22-.207-.277-.18a8.12 8.12 0 0 0 1.372-2.662l1.373.305c-.07.208-.139.416-.208.61h3.812v1.261h-2.19c.194.278.36.555.499.805l-1.276.485a10.15 10.15 0 0 0-.762-1.29h-.624c-.236.444-.499.86-.776 1.248l-.638-.402c.083.222.18.458.264.707h5.212zm-10.023-1.553c-.29.5-.61.957-.97 1.373l-1.262-.804c.804-.86 1.359-1.788 1.678-2.759l1.4.305c-.083.208-.153.416-.236.624h3.41v1.261h-1.968c.222.32.416.624.568.915l-1.317.513c-.221-.499-.485-.97-.79-1.428h-.513zm16.566-1.69h7.098v6.723h-2.814v1.275h2.98v1.345h-2.98v1.289h3.451v1.4h-8.414v-1.4h3.52v-1.29h-2.993v-1.344h2.994v-1.275H76.47v-6.724zm5.711 5.447v-1.47h-1.427v1.47h1.427zm-2.87 0v-1.47h-1.455v1.47h1.456zm-1.455-2.703h1.456v-1.47h-1.456v1.47zm2.898-1.47v1.47h1.427v-1.47h-1.427zm-9.039 3.272h1.317v-2.828h-1.525V38.93h4.506V40.3h-1.511v2.828h1.344v1.386h-1.344v2.62c.443-.152.873-.318 1.303-.499v1.4c-1.276.5-2.634.915-4.076 1.262l-.36-1.386a20.764 20.764 0 0 0 1.663-.347v-3.05h-1.317V43.13zm19.477 7.805h-1.58l-.333-1.414c.485.055.957.097 1.414.097.264 0 .402-.153.402-.444v-2.939c-1.303.084-2.703.167-4.228.236l-.402-1.261a4.849 4.849 0 0 0 1.248-.264c.956-.416 2.024-1.04 3.188-1.885-1.081.083-2.232.152-3.424.222l-.291-1.262c.346-.041.665-.125.97-.263.485-.236 1.082-.749 1.802-1.553-1.08.028-2.19.056-3.354.056l-.416-1.248c3.964 0 7.333-.263 10.106-.776L97 39.442c-1.484.305-3.23.526-5.254.665-.666.776-1.373 1.442-2.107 1.969.915-.056 1.843-.125 2.758-.194.569-.472 1.15-.985 1.76-1.54l1.332.652c-2.15 1.844-4.02 3.23-5.6 4.145a92.972 92.972 0 0 0 4.754-.43 65.914 65.914 0 0 0-.901-1.164l1.067-.665c1.15 1.344 2.038 2.523 2.648 3.535l-1.15.79a21.26 21.26 0 0 0-.846-1.345c-.887.097-1.858.18-2.911.264v3.41c0 .929-.458 1.4-1.359 1.4zm3.216-4.228c1.359.998 2.51 1.982 3.438 2.966l-1.026 1.026c-.79-.942-1.913-1.968-3.368-3.063l.956-.93zm-5.642.097l1.012.9c-.929 1.124-2.08 2.108-3.465 2.94l-.902-1.179c1.331-.762 2.44-1.65 3.355-2.661zm15.124.707v1.372c-1.261.638-2.689 1.165-4.297 1.553l-.18-1.442c1.705-.374 3.202-.873 4.477-1.483zm-2.495-9.427l1.386.54c-.637 1.609-1.289 2.912-1.954 3.938a19.22 19.22 0 0 0 1.247-.167c.222-.443.472-.928.735-1.441l1.29.499c-1.082 2.038-1.983 3.549-2.704 4.533.818-.222 1.65-.527 2.495-.901v1.33c-1.525.638-2.952 1.054-4.297 1.262l-.388-1.33c.263-.112.485-.25.651-.417.388-.415.888-1.15 1.497-2.204-.61.083-1.247.18-1.885.278l-.36-1.331c.222-.097.43-.278.624-.555a25.524 25.524 0 0 0 1.663-4.034zm2.884 6.363l-.305-1.275c.124-.042.221-.083.277-.111.388-.305.9-1.04 1.525-2.218h-2.066v-1.373h3.327a9.143 9.143 0 0 0-.513-1.178l1.47-.25c.166.416.332.902.499 1.428h3.008v1.373h-4.214c-.5.942-.943 1.663-1.331 2.19a45.618 45.618 0 0 0 3.119-.402l-.749-1.04 1.11-.693c.9 1.179 1.594 2.204 2.079 3.078l-1.123.79a16.07 16.07 0 0 0-.54-.929c-1.706.25-3.563.458-5.573.61zm.984.36h1.414c-.083 1.775-.291 3.064-.652 3.882-.402.873-1.067 1.636-2.01 2.274l-.929-1.165c.777-.499 1.317-1.081 1.636-1.747.305-.651.485-1.732.54-3.243zm5.129 5.92h-.846c-1.04 0-1.552-.458-1.552-1.359V44.64h1.372v4.436c0 .208.07.333.222.375h.735c.235-.028.36-.222.388-.569.028-.374.055-.887.055-1.525l1.234.444c0 1.33-.11 2.135-.305 2.44-.194.277-.638.43-1.303.485z"/></g></svg>