<svg width="332" height="41" viewBox="0 0 332 41" xmlns="http://www.w3.org/2000/svg"><g fill="#FFF" fill-rule="evenodd"><path d="M43.393 10.52l-5.28 26.101c-.549 2.167-3.01 3.712-5.907 3.712H25.65c-2.897 0-5.358-1.545-5.905-3.712L14.494 10.61c-1.433.416-2.84.891-4.219 1.423l1.155 3.194c.672 1.857-.28 3.91-2.124 4.585a3.548 3.548 0 0 1-4.556-2.138L.215 5.135C-.456 3.278.495 1.225 2.34.55a3.548 3.548 0 0 1 4.555 2.138l1.216 3.361A59.959 59.959 0 0 1 29.04 2.306c7.309 0 14.31 1.304 20.78 3.688l1.195-3.306A3.548 3.548 0 0 1 55.57.55c1.844.676 2.795 2.728 2.124 4.585l-4.535 12.538a3.548 3.548 0 0 1-4.555 2.138c-1.845-.676-2.796-2.728-2.125-4.585l1.19-3.29a51.805 51.805 0 0 0-4.276-1.415zm-7.281-1.509a52.852 52.852 0 0 0-7.014-.465c-2.488 0-4.936.173-7.33.509l3.637 17.706c.12 1.294 1.297 2.284 2.713 2.284h1.625c1.417 0 2.593-.99 2.715-2.284l3.654-17.75zM84.223 12.73H78.08l-.7 1.954a2.489 2.489 0 0 1-2.344 1.65h-2.623a1.244 1.244 0 0 1-1.175-1.654l2.908-8.365a2.489 2.489 0 0 1 2.351-1.672h2.683a1.244 1.244 0 0 1 1.172 1.663l-.666 1.867h4.536V4.244c0-.687.557-1.244 1.244-1.244h3.821c.687 0 1.244.557 1.244 1.244v3.929h11.93a1.244 1.244 0 0 1 1.16 1.693l-.491 1.271a2.489 2.489 0 0 1-2.322 1.592H90.532v11.485h12.639a1.244 1.244 0 0 1 1.16 1.693l-.507 1.31a2.489 2.489 0 0 1-2.32 1.59H90.531v7.895c0 .999-.597 1.901-1.517 2.291l-2.358 1-.677.306a1.244 1.244 0 0 1-1.757-1.134V28.807H71.836a1.244 1.244 0 0 1-1.245-1.244v-2.105c0-.687.558-1.244 1.245-1.244h12.387V12.729zm37.503 16.086l3.82-8.296v-8.184h-1.676a1.244 1.244 0 0 1-1.245-1.244v-1.9c0-.687.557-1.244 1.245-1.244h1.676V5.719c0-.687.557-1.244 1.245-1.244h2.341c.688 0 1.245.557 1.245 1.244v2.229h.518a1.244 1.244 0 0 1 1.16 1.697l-.784 2.006a.99.99 0 0 1-.894.63v3.323l.434.008a1.244 1.244 0 0 1 1.153 1.653l-1.587 4.558v11.343c0 .898-.324 1.766-.911 2.444l-2.246 2.593c-.48.554-1.18.869-1.913.86l-2.034-.026a1.244 1.244 0 0 1-1.228-1.245v-1.536c0-.682.549-1.237 1.231-1.244l2.289-.024v-5.173h-3.839v3.419c0 .936-.351 1.837-.984 2.526l-2.392 2.603a2.489 2.489 0 0 1-1.84.804l-4.346-.012a1.244 1.244 0 0 1-1.241-1.244V6.11c0-.687.557-1.244 1.244-1.244h8.296c.687 0 1.244.557 1.245 1.244l.018 22.705zm-6.29 6.134h1.703V9.404h-1.704V34.95zm17.89-.69h12.025a1.244 1.244 0 0 1 1.11 1.807l-.676 1.33a2.489 2.489 0 0 1-2.219 1.363h-10.24a1.244 1.244 0 0 1-1.245-1.245v-2.011c0-.688.557-1.245 1.244-1.245zm10.286-23.544l-9.347.03a1.244 1.244 0 0 1-1.248-1.245V7.635c0-.684.553-1.24 1.237-1.244l1.927-.012c.275-.535.537-.943.787-1.223.25-.28.63-.513 1.142-.7.512-.187 1.114-.212 1.807-.075.692.137 1.139.361 1.338.672l1.012 1.326 3.074.011a1.244 1.244 0 0 1 1.091 1.835l-.636 1.182a2.489 2.489 0 0 1-2.184 1.31zm-1.465 1.639h1.625a1.244 1.244 0 0 1 1.242 1.32l-1.067 17.697a1.244 1.244 0 0 1-1.242 1.17h-1.608a1.244 1.244 0 0 1-1.242-1.319l1.05-17.697a1.244 1.244 0 0 1 1.242-1.171zm-5.071 1.17l1.067 17.697a1.244 1.244 0 0 1-1.243 1.32h-1.625a1.244 1.244 0 0 1-1.243-1.17l-1.067-17.698a1.244 1.244 0 0 1 1.243-1.32h1.625c.659 0 1.203.513 1.243 1.17zM166.362 6.826a10.484 10.484 0 0 1-1.234 1.449h2.766c.085-.469.149-.937.191-1.449h-1.723zm.893 3.472h-3.808V8.275h.936l-1.043-1.3c.98-.851 1.83-2.066 2.575-3.642l2 .448c-.149.383-.298.766-.468 1.107h5.723v1.938h-3c-.042.512-.085.98-.149 1.449h3.745v2.023h-4.192l-.063.192c1.574.81 2.893 1.597 3.978 2.407l-1.255 1.256h8.17v9.18h-2.255v-.788h-9.83v.788h-2.234v-8.668c-.51.298-1.042.596-1.596.873L163 13.728c2.17-.96 3.596-2.11 4.255-3.43zm1.064 10.288h9.83V19.35h-9.83v1.236zm0-3.153h9.83v-1.32h-9.83v1.32zm-1.49-3.28h4.724c-.766-.681-1.68-1.341-2.766-2.023-.49.724-1.149 1.406-1.957 2.023zm7.511-9.2h7.617v8.157h-7.617V4.952zm5.447 6.218v-4.26h-3.276v4.26h3.276zm8 4.984v1.385h4.17v-1.385h-4.17zm4.17-1.831v-1.47h-4.17v1.47h4.17zm-4.17 5.048v3.94h-2.149V10.937h8.468v9.883c0 1.555-.723 2.343-2.17 2.343h-1.638l-.553-2.066 1.489.106c.468 0 .723-.298.723-.852v-.98h-4.17zm13.51-6.305h-3.467c-1.553 0-2.32-.873-2.32-2.598V3.653h2.192V6.08c2.128-.34 3.872-.682 5.234-1.044l.724 1.96a93.954 93.954 0 0 1-5.958 1.086v1.938c0 .682.234 1.044.745 1.044h2.425c.298 0 .511-.107.66-.32.149-.234.255-.915.298-2.066l2.064.682c-.17 1.79-.447 2.875-.83 3.216-.383.32-.979.49-1.766.49zm-3.595 4.942v2.428c0 .362.234.553.724.553h2.446c.298 0 .532-.106.66-.32.17-.233.277-.915.34-2.065l2.022.639c-.17 1.81-.468 2.875-.851 3.216-.383.32-.958.49-1.745.49h-3.49c-1.531 0-2.297-.682-2.297-2.023V13.77h2.191v2.236c1.958-.213 3.702-.553 5.234-1.022l.724 1.98c-1.851.49-3.83.832-5.958 1.045zm-5.106-12.972c1.234 1.683 2.17 3.131 2.85 4.367l-1.829 1.299a80.393 80.393 0 0 0-.68-1.32c-2.214.34-4.852.617-7.894.787l-.596-1.853c.383-.127.723-.298 1-.553 1.276-1.491 2.213-2.918 2.85-4.239l2.129.639c-.852 1.661-1.809 3.003-2.894 4.047 1.404-.085 2.894-.234 4.468-.405-.34-.554-.723-1.107-1.106-1.682l1.702-1.087zm31.574 7.817h-3.617v1.172h3.809v1.703h-3.809v1.065h4.468v1.79h-4.468v1.746h-2.106v-1.746h-3.213v-1.79h3.213V15.73h-2.532v-1.703h2.532v-1.172h-2.383v-1.746h2.383V9.894h-3.213V8.147h3.213V6.912h-2.383V5.165h2.383v-1.47h2.106v1.47h3.617v2.982h1.15v1.747h-1.15v2.96zm-3.617-5.942v1.235h1.66V6.912h-1.66zm0 2.982v1.214h1.66V9.894h-1.66zm-9.936-4.282c-.32 1.001-.68 1.981-1.085 2.918v14.803h-2.128V12.407a39.79 39.79 0 0 1-1.191 1.64l-.745-2.386c1.575-2.3 2.723-5.005 3.468-8.115l2 .937-.255.874h4.49v1.81a35.39 35.39 0 0 1-2.256 4.047h2.383v1.235c-.064 2.471-.447 4.601-1.17 6.369.595.554 1.234 1.001 1.915 1.3 1.106.468 2.808.745 5.106.83 1.383 0 2.787-.043 4.234-.085l-.404 2.087h-2.49c-3.872-.043-6.51-.447-7.915-1.235-.531-.299-1-.618-1.425-1.001a9.739 9.739 0 0 1-2.468 2.555l-1.085-1.938a7.694 7.694 0 0 0 2.127-2.258c-.83-1.235-1.489-2.726-1.978-4.494l1.787-.703c.255 1.15.66 2.173 1.17 3.068.362-1.15.596-2.429.681-3.877h-3.021v-1.576a31.497 31.497 0 0 0 2.468-4.047h-2.213V5.612zm24.404-2.257l2.34.32a8.567 8.567 0 0 1-.51 1.469h5.936v8.818c.809-1.001 1.426-2.045 1.851-3.153l1.894 1.193c-1.021 1.853-2.255 3.472-3.745 4.856v4.345c0 1.406-.66 2.109-1.978 2.109h-2.277l-.553-2.109 2.127.107c.32 0 .49-.213.49-.596v-2.088c-.32.213-.639.405-.958.618-2.978 1.768-6.553 3.003-10.723 3.727l-1-2.002c5.106-.894 8.851-2.13 11.276-3.749h-11.404v-2.044h2.383V5.144h4.32c.212-.575.404-1.172.531-1.79zm-2.638 11.82h8.213v-1.554h-8.213v1.555zm0-3.428h8.213v-1.364h-8.213v1.364zm0-3.217h8.213V7.103h-8.213V8.53zm31.936 3.387v4.58h-10.255v1h11.255v5.794h-2.191v-.724h-9.064v.702h-2.234V11.917h12.49zm-10.255 8.69h9.064v-1.363h-9.064v1.363zm0-5.857h8.106v-1.065h-8.106v1.065zm13.191-5.538v4.175h-2.17v-2.3h-14.042v2.3h-2.17V9.212h8.148c-.17-.383-.34-.724-.51-1.044l1.872-.32-.426-.276c.98-1.278 1.681-2.641 2.107-4.09l2.106.469c-.106.32-.213.639-.319.937h5.851v1.938h-3.362c.298.426.554.852.766 1.236l-1.957.745a15.598 15.598 0 0 0-1.17-1.98h-.958c-.361.681-.766 1.32-1.191 1.916l-.979-.617c.128.34.277.703.404 1.086h8zm-15.383-2.386c-.446.767-.936 1.47-1.489 2.109L248.447 7.7c1.234-1.32 2.085-2.748 2.574-4.239l2.15.469c-.128.32-.235.639-.362.958h5.234v1.938h-3.022c.34.49.639.959.873 1.406l-2.022.788a14.71 14.71 0 0 0-1.212-2.194h-.788zm25.426-2.598h10.893v10.33h-4.319v1.96h4.575v2.066h-4.575v1.98h5.298v2.152h-12.915v-2.152h5.405v-1.98h-4.596v-2.066h4.596v-1.96h-4.362V4.228zm8.766 8.37v-2.257h-2.192v2.258h2.192zm-4.404 0v-2.257h-2.234v2.258h2.234zm-2.234-4.153h2.234V6.187h-2.234v2.258zm4.446-2.258v2.258h2.192V6.187h-2.192zM270 11.214h2.021V6.87h-2.34V4.76h6.915V6.87h-2.32v4.345h2.064v2.13h-2.063v4.026c.68-.235 1.34-.49 2-.767v2.151c-1.958.767-4.043 1.406-6.256 1.938l-.553-2.13a31.84 31.84 0 0 0 2.553-.532v-4.686H270v-2.13zm29.894 11.992h-2.426l-.51-2.173c.744.085 1.468.15 2.17.15.404 0 .617-.235.617-.682v-4.516c-2 .128-4.15.256-6.49.362l-.617-1.938c.702-.064 1.34-.192 1.915-.405 1.468-.639 3.107-1.597 4.894-2.896-1.66.127-3.426.234-5.256.34l-.446-1.938a4.973 4.973 0 0 0 1.489-.405c.745-.362 1.66-1.15 2.766-2.385-1.66.043-3.362.085-5.149.085l-.638-1.917c6.085 0 11.255-.405 15.51-1.193l1.086 1.853c-2.277.469-4.958.81-8.064 1.023-1.022 1.193-2.107 2.215-3.234 3.024 1.404-.085 2.83-.191 4.234-.298a79.308 79.308 0 0 0 2.702-2.364l2.042 1.001c-3.298 2.833-6.17 4.963-8.595 6.368 2.766-.191 5.212-.404 7.297-.66-.446-.596-.914-1.193-1.382-1.789l1.638-1.022c1.766 2.066 3.127 3.876 4.064 5.431l-1.766 1.214c-.383-.682-.83-1.363-1.298-2.066-1.362.15-2.851.277-4.468.405v5.24c0 1.426-.702 2.15-2.085 2.15zm4.936-6.497c2.085 1.534 3.85 3.046 5.276 4.558l-1.574 1.576c-1.213-1.448-2.936-3.024-5.17-4.707l1.468-1.427zm-8.66.15l1.553 1.384c-1.425 1.725-3.191 3.237-5.319 4.515l-1.383-1.81c2.043-1.172 3.745-2.535 5.15-4.09zm23.213 1.086v2.108c-1.936.98-4.128 1.79-6.596 2.386l-.276-2.215c2.617-.575 4.915-1.342 6.872-2.28zm-3.83-14.484l2.128.83c-.979 2.472-1.979 4.474-3 6.05a29.47 29.47 0 0 0 1.915-.256c.34-.681.723-1.427 1.127-2.215l1.98.767c-1.66 3.13-3.043 5.452-4.15 6.965 1.256-.341 2.532-.81 3.83-1.385v2.045c-2.34.98-4.532 1.619-6.596 1.938l-.596-2.045c.405-.17.745-.383 1-.638.596-.64 1.362-1.768 2.298-3.387-.936.128-1.915.277-2.893.426l-.553-2.045c.34-.149.66-.426.957-.852.979-1.874 1.83-3.94 2.553-6.198zm4.426 9.776l-.468-1.959c.191-.064.34-.128.425-.17.596-.469 1.383-1.598 2.34-3.408h-3.17V5.59h5.107a14.055 14.055 0 0 0-.787-1.81l2.255-.384c.255.64.51 1.385.766 2.194h4.617V7.7h-6.468c-.766 1.448-1.447 2.556-2.043 3.365a69.945 69.945 0 0 0 4.787-.618l-1.149-1.597 1.703-1.065c1.383 1.81 2.446 3.386 3.191 4.728l-1.723 1.214a24.697 24.697 0 0 0-.83-1.427c-2.617.384-5.468.703-8.553.937zm1.51.554h2.17c-.127 2.727-.446 4.707-1 5.964-.616 1.342-1.638 2.513-3.085 3.493l-1.425-1.789c1.191-.767 2.021-1.661 2.51-2.684.469-1 .745-2.662.83-4.984zm7.873 9.095h-1.298c-1.596 0-2.383-.703-2.383-2.087v-7.263h2.106v6.815c0 .32.107.512.34.576h1.128c.362-.043.554-.341.596-.874.043-.575.085-1.363.085-2.343l1.894.682c0 2.045-.17 3.28-.468 3.749-.298.426-.979.66-2 .745zM163 30.376h2.016l1.648 6.112 1.632-6.112h1.68l1.632 6.112 1.648-6.112h2.016l-2.784 8.272h-1.696l-1.648-6.048-1.664 6.048h-1.696L163 30.376zm14.432 0h2.016l1.648 6.112 1.632-6.112h1.68l1.632 6.112 1.648-6.112h2.016l-2.784 8.272h-1.696l-1.648-6.048-1.664 6.048h-1.696l-2.784-8.272zm14.432 0h2.016l1.648 6.112 1.632-6.112h1.68l1.632 6.112 1.648-6.112h2.016l-2.784 8.272h-1.696l-1.648-6.048-1.664 6.048h-1.696l-2.784-8.272zm16.544 5.856c.352 0 .64.112.896.368.24.24.368.544.368.896s-.128.64-.368.896a1.314 1.314 0 0 1-.896.352c-.352 0-.656-.128-.88-.352a1.196 1.196 0 0 1-.368-.896c0-.352.112-.656.368-.896.224-.256.528-.368.88-.368zm9.44-6.08c2.064 0 3.104 1.12 3.104 3.392v5.104h-1.824v-4.944c0-1.36-.624-2.032-1.872-2.032-.448 0-.848.16-1.184.48-.384.352-.608.864-.672 1.52v4.976h-1.824v-8.272h1.824v.96c.32-.384.688-.688 1.088-.88a2.977 2.977 0 0 1 1.36-.304zM225.032 27h1.824v11.648h-1.824V27zm9.152.224h1.76v1.536h-1.504c-.24 0-.416.064-.544.192-.128.128-.176.32-.176.592v.832h2.112v1.488h-2.112v6.784h-1.824v-6.784h-1.84v-1.488h1.84v-.88c0-.704.192-1.264.592-1.664.384-.416.96-.608 1.696-.608zm6.032-.224c.352 0 .656.112.896.336.224.224.352.512.352.864s-.128.656-.368.88c-.24.224-.528.336-.88.336s-.64-.112-.88-.336a1.182 1.182 0 0 1-.352-.88c0-.352.112-.64.352-.864.24-.224.528-.336.88-.336zm-.912 3.376h1.824v8.272h-1.824v-8.272zm8.672-2.672v2.672h1.84v1.504h-1.84v4.672c0 .192.032.336.128.448.096.096.224.144.416.144h1.088v1.504h-1.392c-.72 0-1.248-.192-1.584-.576-.32-.352-.48-.848-.48-1.52V31.88h-1.488v-1.504h1.488v-1.92l1.824-.752zm6.432 8.528c.352 0 .64.112.896.368.24.24.368.544.368.896s-.128.64-.368.896a1.314 1.314 0 0 1-.896.352c-.352 0-.656-.128-.88-.352a1.196 1.196 0 0 1-.368-.896c0-.352.112-.656.368-.896.224-.256.528-.368.88-.368zm8.88-6.08c1.072 0 1.92.24 2.56.72.656.512 1.072 1.28 1.232 2.32h-1.808c-.112-.528-.336-.912-.656-1.168-.336-.256-.784-.384-1.328-.384-.672 0-1.2.24-1.584.752-.384.496-.576 1.2-.576 2.096 0 .912.176 1.632.56 2.144.352.496.88.752 1.584.752 1.216 0 1.888-.608 2.032-1.808h1.808c-.192 1.12-.624 1.952-1.28 2.496-.64.528-1.504.8-2.576.8-1.28 0-2.272-.416-2.976-1.248-.688-.8-1.024-1.84-1.024-3.12 0-1.248.336-2.272 1.008-3.056.72-.864 1.728-1.296 3.024-1.296zm11.536 0c2.064 0 3.104 1.12 3.104 3.392v5.104h-1.824v-4.944c0-1.36-.624-2.032-1.872-2.032-.448 0-.848.16-1.184.48-.384.352-.608.864-.672 1.52v4.976h-1.824v-8.272h1.824v.96c.32-.384.688-.688 1.088-.88a2.977 2.977 0 0 1 1.36-.304z"/></g></svg>