<svg width="249" height="30" viewBox="0 0 249 30" xmlns="http://www.w3.org/2000/svg"><g fill="#000" fill-rule="evenodd"><path d="M32.545 7.64l-3.96 19.576C28.172 28.84 26.326 30 24.154 30h-4.917c-2.173 0-4.018-1.159-4.429-2.784L10.871 7.707c-1.075.312-2.13.668-3.165 1.067l.867 2.396a2.688 2.688 0 0 1-1.594 3.438 2.661 2.661 0 0 1-3.416-1.603L.16 3.6A2.688 2.688 0 0 1 1.755.163a2.661 2.661 0 0 1 3.417 1.603l.911 2.52A44.969 44.969 0 0 1 21.78 1.48c5.482 0 10.733.977 15.585 2.766l.896-2.48A2.661 2.661 0 0 1 41.677.163 2.688 2.688 0 0 1 43.271 3.6l-3.402 9.404a2.661 2.661 0 0 1-3.416 1.603 2.688 2.688 0 0 1-1.594-3.438l.893-2.468a38.854 38.854 0 0 0-3.207-1.061zm-5.461-1.132c-1.72-.23-3.476-.349-5.26-.349-1.867 0-3.702.13-5.499.382l2.728 13.28c.091.97.973 1.713 2.036 1.713h1.218c1.063 0 1.945-.743 2.036-1.713l2.74-13.313zM63.167 9.297H58.56l-.526 1.466A1.867 1.867 0 0 1 56.278 12H54.31a.933.933 0 0 1-.881-1.24l2.181-6.274a1.867 1.867 0 0 1 1.763-1.254h2.013a.933.933 0 0 1 .88 1.248l-.5 1.4h3.4V2.932c0-.515.419-.933.934-.933h2.866c.515 0 .933.418.933.933V5.88h8.947a.933.933 0 0 1 .87 1.27l-.368.954a1.867 1.867 0 0 1-1.741 1.194h-7.708v8.613h9.48a.933.933 0 0 1 .87 1.27l-.38.983a1.867 1.867 0 0 1-1.742 1.192H67.9v5.921c0 .75-.448 1.426-1.138 1.719l-1.769.75-.507.23a.933.933 0 0 1-1.318-.85v-7.77h-9.29a.933.933 0 0 1-.933-.933v-1.579c0-.515.417-.933.933-.933h9.29V9.297zm28.128 12.065l2.865-6.222V9.002h-1.258a.933.933 0 0 1-.933-.933V6.644c0-.515.418-.933.933-.933h1.258V4.039c0-.515.417-.933.933-.933h1.756c.516 0 .934.418.934.933v1.672h.388a.933.933 0 0 1 .87 1.273l-.588 1.504a.742.742 0 0 1-.67.472v2.493l.325.006a.933.933 0 0 1 .865 1.24l-1.19 3.418v8.508a2.8 2.8 0 0 1-.684 1.833l-1.684 1.944c-.36.416-.885.652-1.434.645l-1.526-.02a.933.933 0 0 1-.921-.933v-1.152c0-.511.411-.928.923-.933l1.717-.018v-3.88h-2.88v2.564a2.8 2.8 0 0 1-.738 1.895l-1.794 1.952a1.867 1.867 0 0 1-1.38.604l-3.26-.01a.933.933 0 0 1-.93-.933V4.333c0-.515.418-.933.933-.933h6.222c.516 0 .933.418.934.933l.014 17.029zm-4.719 4.6h1.278V6.804h-1.278v19.16zm13.418-.518h9.02a.933.933 0 0 1 .831 1.356l-.506.998a1.867 1.867 0 0 1-1.664 1.022h-7.681a.933.933 0 0 1-.933-.934v-1.508c0-.516.417-.934.933-.934zm7.715-17.657l-7.01.022a.933.933 0 0 1-.936-.934V5.476c0-.513.414-.93.928-.933l1.445-.009c.206-.401.403-.707.59-.917.187-.21.473-.385.856-.525.384-.14.836-.159 1.356-.056.52.103.854.27 1.004.504l.758.994 2.306.009a.933.933 0 0 1 .818 1.375l-.477.887c-.324.603-.953.98-1.638.982zm-1.098 1.23h1.218a.933.933 0 0 1 .932.989l-.8 13.273a.933.933 0 0 1-.932.877h-1.206a.933.933 0 0 1-.932-.989l.788-13.273a.933.933 0 0 1 .932-.878zm-3.804.876l.8 13.273a.933.933 0 0 1-.932.99h-1.219a.933.933 0 0 1-.932-.877l-.8-13.273a.933.933 0 0 1 .932-.99h1.22c.493 0 .901.385.93.877zM124.771 4.87a7.863 7.863 0 0 1-.925 1.086h2.074c.064-.351.112-.703.144-1.086h-1.293zm.67 2.604h-2.856V5.956h.702l-.782-.974c.734-.64 1.373-1.55 1.931-2.732l1.5.335c-.112.288-.223.576-.35.831h4.292V4.87h-2.25a20.76 20.76 0 0 1-.112 1.086h2.808v1.518h-3.143l-.048.143c1.18.607 2.17 1.198 2.984 1.806l-.941.942h6.127v6.885h-1.691v-.591h-7.373v.591h-1.675v-6.502c-.383.224-.782.448-1.197.655l-1.117-1.357c1.628-.72 2.697-1.582 3.191-2.572zm.798 7.715h7.373v-.926h-7.373v.926zm0-2.364h7.373v-.99h-7.373v.99zm-1.117-2.46h3.543c-.575-.511-1.26-1.006-2.075-1.518-.367.544-.861 1.055-1.468 1.518zm5.633-6.9h5.713v6.117h-5.713V3.464zm4.085 4.664V4.934h-2.457v3.195h2.457zm6 3.738v1.038h3.128v-1.038h-3.128zm3.128-1.374V9.39h-3.128v1.102h3.128zm-3.128 3.786v2.955h-1.611V7.953h6.35v7.412c0 1.166-.542 1.757-1.627 1.757h-1.229l-.414-1.55 1.117.08c.35 0 .542-.223.542-.638v-.735h-3.128zm10.133-4.729h-2.6c-1.166 0-1.74-.655-1.74-1.949V2.49h1.644v1.82c1.595-.255 2.904-.51 3.925-.782l.543 1.47c-1.309.287-2.793.559-4.468.814v1.454c0 .511.175.783.558.783h1.82c.223 0 .382-.08.494-.24.112-.176.191-.687.223-1.55l1.548.512c-.127 1.342-.335 2.156-.622 2.412-.287.24-.734.367-1.325.367zm-2.696 3.706v1.821c0 .272.175.416.542.416h1.835c.224 0 .4-.08.495-.24.128-.176.207-.687.255-1.55l1.516.48c-.127 1.358-.35 2.156-.638 2.412-.287.24-.718.367-1.309.367h-2.617c-1.149 0-1.723-.51-1.723-1.517v-5.368h1.644v1.678c1.468-.16 2.776-.416 3.925-.767l.543 1.486c-1.389.367-2.873.623-4.468.782zm-3.83-9.728c.925 1.262 1.627 2.348 2.138 3.275l-1.372.974a60.3 60.3 0 0 0-.51-.99c-1.66.255-3.64.463-5.921.59l-.447-1.389c.287-.096.543-.224.75-.415.958-1.119 1.66-2.189 2.138-3.18l1.596.48c-.638 1.246-1.356 2.252-2.17 3.035A72.352 72.352 0 0 0 144 5.605c-.255-.416-.543-.831-.83-1.262l1.277-.815zm23.68 5.863h-2.712v.878h2.856v1.278h-2.856v.799h3.351v1.342h-3.351v1.31h-1.58v-1.31h-2.41v-1.342h2.41v-.799h-1.899V10.27h1.9v-.878h-1.788V8.08h1.787v-.91h-2.41V5.86h2.41v-.927h-1.787v-1.31h1.787V2.522h1.58v1.102h2.713V5.86h.861v1.31h-.861v2.22zm-2.712-4.457v.926h1.245v-.926h-1.245zm0 2.236v.91h1.245v-.91h-1.245zm-7.452-3.21c-.24.75-.51 1.485-.814 2.188V17.25h-1.596V9.055c-.287.415-.574.815-.893 1.23l-.559-1.789c1.18-1.725 2.043-3.754 2.601-6.086l1.5.703-.191.655h3.367v1.357a26.543 26.543 0 0 1-1.692 3.036h1.787v.926c-.047 1.853-.335 3.45-.877 4.776.447.416.925.751 1.436.975.83.351 2.106.559 3.83.623 1.037 0 2.09-.032 3.175-.064l-.303 1.565h-1.867c-2.904-.031-4.883-.335-5.936-.926a5.814 5.814 0 0 1-1.07-.75 7.304 7.304 0 0 1-1.85 1.916l-.814-1.454a5.77 5.77 0 0 0 1.596-1.693c-.623-.926-1.117-2.045-1.484-3.37l1.34-.528a8.21 8.21 0 0 0 .878 2.3c.27-.862.446-1.82.51-2.907h-2.266V8.368a23.623 23.623 0 0 0 1.851-3.035h-1.66V3.96zm18.303-1.694l1.755.24c-.095.383-.223.75-.383 1.102h4.452v6.613a8.746 8.746 0 0 0 1.389-2.364l1.42.895c-.766 1.39-1.692 2.603-2.809 3.642v3.259c0 1.054-.494 1.581-1.484 1.581H178.9l-.415-1.581 1.596.08c.24 0 .367-.16.367-.448V13.72c-.24.16-.479.303-.718.463-2.234 1.326-4.915 2.252-8.043 2.795l-.75-1.501c3.83-.671 6.638-1.598 8.458-2.812h-8.554v-1.533h1.788V3.608h3.239c.16-.431.303-.879.399-1.342zm-1.979 8.866h6.16V9.966h-6.16v1.166zm0-2.572h6.16V7.538h-6.16V8.56zm0-2.412h6.16v-1.07h-6.16v1.07zm23.952 2.54v3.434h-7.691v.751h8.441v4.345h-1.643v-.543h-6.798v.527h-1.676V8.688h9.367zm-7.691 6.517h6.798v-1.022h-6.798v1.022zm0-4.393h6.08v-.798h-6.08v.798zm9.893-4.153v3.13h-1.627V8.066h-10.532V9.79h-1.628V6.659h6.112a12.006 12.006 0 0 0-.383-.783l1.404-.24-.319-.207a9.362 9.362 0 0 0 1.58-3.067l1.58.351c-.08.24-.16.48-.24.703h4.389V4.87h-2.522c.224.32.415.639.575.926l-1.468.56a11.699 11.699 0 0 0-.878-1.486h-.718c-.271.511-.575.99-.894 1.438l-.734-.464c.096.256.208.527.303.815h6zm-11.537-1.79a10.394 10.394 0 0 1-1.117 1.582l-1.452-.926c.926-.99 1.564-2.06 1.931-3.18l1.612.352c-.096.24-.176.48-.272.72h3.926V4.87h-2.266c.255.367.479.719.654 1.054l-1.516.591a11.033 11.033 0 0 0-.91-1.645h-.59zm19.07-1.948h8.17v7.748h-3.24v1.47h3.431v1.549h-3.43v1.485h3.973v1.614h-9.687v-1.614h4.054v-1.485h-3.447v-1.55h3.447v-1.47h-3.272V2.922zm6.574 6.278V7.506h-1.644v1.693h1.644zm-3.303 0V7.506h-1.676v1.693h1.676zm-1.676-3.115h1.676V4.39h-1.676v1.693zm3.335-1.693v1.693h1.644V4.39h-1.644zM202.5 8.16h1.516V4.9h-1.755v-1.58h5.186V4.9h-1.74v3.26h1.548v1.597h-1.548v3.02c.511-.177 1.006-.368 1.5-.576v1.613a35.842 35.842 0 0 1-4.691 1.454l-.415-1.597a23.88 23.88 0 0 0 1.915-.4V9.758H202.5V8.161zm22.42 8.993h-1.819l-.383-1.63a14.42 14.42 0 0 0 1.628.113c.303 0 .463-.176.463-.512V11.74c-1.5.096-3.112.192-4.868.271l-.462-1.453a5.576 5.576 0 0 0 1.436-.304c1.101-.479 2.33-1.198 3.67-2.172-1.245.096-2.569.175-3.941.255l-.335-1.453a3.73 3.73 0 0 0 1.117-.304c.558-.271 1.244-.863 2.074-1.79-1.245.033-2.521.065-3.862.065l-.478-1.438c4.563 0 8.441-.303 11.633-.894l.813 1.39c-1.707.35-3.718.606-6.047.766-.766.895-1.58 1.661-2.426 2.268a211.99 211.99 0 0 0 3.176-.223 59.48 59.48 0 0 0 2.026-1.773l1.532.75c-2.473 2.125-4.628 3.723-6.447 4.777 2.075-.144 3.91-.304 5.474-.495a75.942 75.942 0 0 0-1.038-1.342l1.23-.767c1.324 1.55 2.345 2.907 3.047 4.073l-1.324.911a24.502 24.502 0 0 0-.974-1.55c-1.021.112-2.138.208-3.351.304v3.93c0 1.07-.527 1.613-1.564 1.613zm3.702-4.872c1.564 1.15 2.889 2.284 3.958 3.418l-1.181 1.183c-.91-1.087-2.202-2.269-3.878-3.53l1.101-1.071zm-6.494.112l1.165 1.038c-1.07 1.294-2.394 2.428-3.99 3.387l-1.037-1.358c1.532-.879 2.808-1.901 3.862-3.067zm17.41.814v1.582c-1.453.735-3.097 1.342-4.948 1.79l-.207-1.662c1.963-.432 3.686-1.007 5.154-1.71zm-2.873-10.862l1.596.623c-.734 1.853-1.484 3.354-2.25 4.537.478-.048.957-.112 1.436-.192.255-.511.542-1.07.846-1.661l1.484.575c-1.245 2.348-2.282 4.09-3.112 5.223a20.158 20.158 0 0 0 2.872-1.038v1.533c-1.755.735-3.399 1.215-4.947 1.454l-.446-1.533c.303-.128.558-.288.75-.48.446-.479 1.02-1.325 1.723-2.54-.702.096-1.436.208-2.17.32l-.415-1.534c.255-.111.495-.32.718-.639a29.43 29.43 0 0 0 1.915-4.648zm3.319 7.332l-.351-1.47c.144-.047.255-.095.32-.127.446-.352 1.036-1.198 1.754-2.556h-2.377V3.943h3.83c-.176-.479-.367-.942-.59-1.358l1.69-.287c.192.48.384 1.038.575 1.645h3.463v1.582h-4.851c-.575 1.086-1.085 1.917-1.532 2.524a52.459 52.459 0 0 0 3.59-.464l-.861-1.198 1.276-.798c1.037 1.357 1.835 2.54 2.394 3.546l-1.293.91a18.523 18.523 0 0 0-.622-1.07 92.806 92.806 0 0 1-6.415.703zm1.133.415h1.628c-.096 2.045-.335 3.53-.75 4.473-.463 1.007-1.229 1.885-2.314 2.62l-1.07-1.342c.894-.575 1.517-1.246 1.884-2.013.35-.75.558-1.996.622-3.738zm5.904 6.822h-.973c-1.197 0-1.787-.528-1.787-1.566V9.902h1.58v5.112c0 .24.08.383.255.43h.845c.272-.031.415-.255.447-.654.032-.431.064-1.022.064-1.757l1.42.51c0 1.534-.127 2.461-.35 2.812-.224.32-.735.496-1.5.56zM122.25 22.532h1.512l1.236 4.584 1.224-4.584h1.26l1.224 4.584 1.236-4.584h1.512l-2.088 6.204h-1.272l-1.236-4.536-1.248 4.536h-1.272l-2.088-6.204zm10.824 0h1.512l1.236 4.584 1.224-4.584h1.26l1.224 4.584 1.236-4.584h1.512l-2.088 6.204h-1.272l-1.236-4.536-1.248 4.536h-1.272l-2.088-6.204zm10.824 0h1.512l1.236 4.584 1.224-4.584h1.26l1.224 4.584 1.236-4.584h1.512l-2.088 6.204h-1.272l-1.236-4.536-1.248 4.536h-1.272l-2.088-6.204zm12.408 4.392c.264 0 .48.084.672.276.18.18.276.408.276.672 0 .264-.096.48-.276.672a.985.985 0 0 1-.672.264.914.914 0 0 1-.66-.264.897.897 0 0 1-.276-.672c0-.264.084-.492.276-.672.168-.192.396-.276.66-.276zm7.08-4.56c1.548 0 2.328.84 2.328 2.544v3.828h-1.368v-3.708c0-1.02-.468-1.524-1.404-1.524-.336 0-.636.12-.888.36-.288.264-.456.648-.504 1.14v3.732h-1.368v-6.204h1.368v.72c.24-.288.516-.516.816-.66a2.233 2.233 0 0 1 1.02-.228zM168.774 20h1.368v8.736h-1.368V20zm6.864.168h1.32v1.152h-1.128c-.18 0-.312.048-.408.144-.096.096-.132.24-.132.444v.624h1.584v1.116h-1.584v5.088h-1.368v-5.088h-1.38v-1.116h1.38v-.66c0-.528.144-.948.444-1.248.288-.312.72-.456 1.272-.456zm4.524-.168c.264 0 .492.084.672.252a.886.886 0 0 1 .264.648.878.878 0 0 1-.276.66.925.925 0 0 1-.66.252.925.925 0 0 1-.66-.252.886.886 0 0 1-.264-.66c0-.264.084-.48.264-.648a.925.925 0 0 1 .66-.252zm-.684 2.532h1.368v6.204h-1.368v-6.204zm6.504-2.004v2.004h1.38v1.128h-1.38v3.504c0 .144.024.252.096.336.072.072.168.108.312.108h.816v1.128h-1.044c-.54 0-.936-.144-1.188-.432-.24-.264-.36-.636-.36-1.14V23.66h-1.116v-1.128h1.116v-1.44l1.368-.564zm4.824 6.396c.264 0 .48.084.672.276.18.18.276.408.276.672 0 .264-.096.48-.276.672a.985.985 0 0 1-.672.264.914.914 0 0 1-.66-.264.897.897 0 0 1-.276-.672c0-.264.084-.492.276-.672.168-.192.396-.276.66-.276zm6.66-4.56c.804 0 1.44.18 1.92.54.492.384.804.96.924 1.74h-1.356c-.084-.396-.252-.684-.492-.876-.252-.192-.588-.288-.996-.288-.504 0-.9.18-1.188.564-.288.372-.432.9-.432 1.572 0 .684.132 1.224.42 1.608.264.372.66.564 1.188.564.912 0 1.416-.456 1.524-1.356h1.356c-.144.84-.468 1.464-.96 1.872-.48.396-1.128.6-1.932.6-.96 0-1.704-.312-2.232-.936-.516-.6-.768-1.38-.768-2.34 0-.936.252-1.704.756-2.292.54-.648 1.296-.972 2.268-.972zm8.652 0c1.548 0 2.328.84 2.328 2.544v3.828h-1.368v-3.708c0-1.02-.468-1.524-1.404-1.524-.336 0-.636.12-.888.36-.288.264-.456.648-.504 1.14v3.732h-1.368v-6.204h1.368v.72c.24-.288.516-.516.816-.66a2.233 2.233 0 0 1 1.02-.228z"/></g></svg>