<?xml version="1.0" standalone="no"?><!DOCTYPE svg PUBLIC "-//W3C//DTD SVG 1.1//EN" "http://www.w3.org/Graphics/SVG/1.1/DTD/svg11.dtd"><svg t="1526009433086" class="icon" style="" viewBox="0 0 1024 1024" version="1.1" xmlns="http://www.w3.org/2000/svg" p-id="12472" xmlns:xlink="http://www.w3.org/1999/xlink" width="200" height="200"><defs><style type="text/css"></style></defs><path d="M85 179.8c-11 0-20 9-20 20v631c0 11 9 20 20 20h854.7c11 0 20-9 20-20V199.9c0-14.3-9.2-20.1-21.1-20.1m-29.9 599.8c0 12.2-9.9 22-22 22H137.9c-12.2 0-22-9.9-22-22V251.1c0-12.2 9.9-22 22-22H889c10.9 0 19.7 8.8 19.7 19.7v530.8z" fill="#515151" p-id="12473"></path><path d="M908.7 208.8c-8.6-8.6-22.5-8.6-31 0 0 0-245.6 245-342.5 342-19.7 19.7-25.7 20-45 0.7-96.5-96.5-343.3-342.7-343.3-342.7-8.6-8.6-22.5-8.6-31 0-8.6 8.5-8.6 22.4 0 31 0 0 245 244.5 342.2 341.7 34.9 34.9 74.8 33.6 108 0.3 96.9-96.9 342.6-342 342.6-342 8.5-8.6 8.5-22.5 0-31z m0 0" fill="#515151" p-id="12474"></path><path d="M416.4 499.7c-8.6-8.5-22.5-8.5-31 0L93.5 790.9c-8.6 8.6-8.6 22.4 0 31 8.6 8.6 22.5 8.6 31 0l291.9-291.2c8.6-8.6 8.6-22.5 0-31z m0 0M931 790.9L639.2 499.7c-8.6-8.5-22.5-8.5-31 0-8.6 8.6-8.6 22.4 0 31L900 821.9c8.6 8.6 22.4 8.6 31 0 8.6-8.6 8.6-22.5 0-31z m0 0" fill="#515151" p-id="12475"></path></svg>