<?xml version="1.0" standalone="no"?><!DOCTYPE svg PUBLIC "-//W3C//DTD SVG 1.1//EN" "http://www.w3.org/Graphics/SVG/1.1/DTD/svg11.dtd"><svg t="1526009468144" class="icon" style="" viewBox="0 0 1024 1024" version="1.1" xmlns="http://www.w3.org/2000/svg" p-id="13109" xmlns:xlink="http://www.w3.org/1999/xlink" width="200" height="200"><defs><style type="text/css"></style></defs><path d="M905.846 858.585H118.154c-17.33 0-31.508-14.179-31.508-31.508V196.923c0-17.33 14.179-31.508 31.508-31.508h787.692c17.33 0 31.508 14.179 31.508 31.508v630.154c0 17.33-14.179 31.508-31.508 31.508z m-756.184-63.016h724.676V228.431H149.662v567.138z" fill="#515151" p-id="13110"></path><path d="M905.846 196.923L512 512 118.154 196.923z" fill="#515151" p-id="13111"></path><path d="M512 543.508c-7.09 0-14.178-2.363-19.692-7.09L98.462 221.342c-10.24-8.665-14.179-22.056-10.24-34.659 4.726-12.603 16.541-21.268 29.932-21.268h787.692c13.39 0 25.206 8.665 29.932 21.268 4.727 12.603 0.788 26.782-10.24 34.659L531.692 536.418c-5.514 4.727-12.603 7.09-19.692 7.09zM207.95 228.43L512 471.828 816.05 228.43h-608.1z" fill="#515151" p-id="13112"></path></svg>