<?xml version="1.0" encoding="UTF-8"?>
<svg width="90px" height="90px" viewBox="0 0 90 90" version="1.1" xmlns="http://www.w3.org/2000/svg" xmlns:xlink="http://www.w3.org/1999/xlink">
    <!-- Generator: Sketch 49 (51002) - http://www.bohemiancoding.com/sketch -->
    <title>删除</title>
    <desc>Created with Sketch.</desc>
    <defs></defs>
    <g id="超级桌面" stroke="none" stroke-width="1" fill="none" fill-rule="evenodd">
        <g transform="translate(-1630.000000, -1580.000000)" id="删除">
            <g transform="translate(1630.000000, 1580.000000)">
                <g>
                    <circle id="Oval-7" fill="#F0F0F0" cx="45" cy="45" r="45"></circle>
                    <g id="删除-(2)" transform="translate(28.000000, 25.000000)" fill="#CCCCCC" fill-rule="nonzero">
                        <path d="M7.56403944,39.9801115 L27.4345356,39.9801115 C30.0642112,39.9801115 32.1951145,37.7233891 32.1951145,35.0753623 L33.3691603,9.39108138 L1.62888041,9.39108138 L2.80346056,35.0753623 C2.80341603,37.7233891 4.93503181,39.9801115 7.56403944,39.9801115 Z M22.4984097,14.3728428 L25.6133651,14.3728428 L25.6133651,34.9983501 L22.4984097,34.9983501 L22.4984097,14.3728428 Z M19.3834097,14.3728428 L19.3834097,34.9983501 L15.61757,34.9983501 L15.61757,14.3728428 L19.3834097,14.3728428 Z M12.5026145,14.3728428 L12.5026145,34.9983501 L9.38765903,34.9983501 L9.38765903,14.3728428 L12.5026145,14.3728428 Z M32.5763613,3.15219621 L22.2605344,3.15219621 C22.2605344,3.15219621 21.5499809,0.0327759197 20.6731997,0.0327759197 L14.3253308,0.0327759197 C13.4492176,0.0327759197 12.7380852,3.15219621 12.7380852,3.15219621 L2.42341603,3.15219621 C1.1082888,3.15219621 0.0427926209,4.30327759 0.0427926209,5.62702341 C0.0427926209,6.95134894 0.0427926209,8.13395764 0.0427926209,8.13395764 L34.9583206,8.13395764 C34.9583206,8.13395764 34.9583206,6.95130435 34.9583206,5.62702341 C34.9583206,4.30332219 33.8908651,3.15219621 32.5763613,3.15219621 Z" id="Shape"></path>
                    </g>
                </g>
            </g>
        </g>
    </g>
</svg>