<?xml version="1.0" encoding="UTF-8"?>
<svg width="90px" height="90px" viewBox="0 0 90 90" version="1.1" xmlns="http://www.w3.org/2000/svg" xmlns:xlink="http://www.w3.org/1999/xlink">
    <!-- Generator: Sketch 49 (51002) - http://www.bohemiancoding.com/sketch -->
    <title>删除</title>
    <desc>Created with Sketch.</desc>
    <defs></defs>
    <g id="超级桌面" stroke="none" stroke-width="1" fill="none" fill-rule="evenodd">
        <g transform="translate(-1730.000000, -1580.000000)" id="删除">
            <g transform="translate(1730.000000, 1580.000000)">
                <g>
                    <circle id="Oval-7" fill="#F0F0F0" cx="45" cy="45" r="45"></circle>
                    <g id="删除-(2)" transform="translate(29.000000, 12.000000)" fill="#333333" fill-rule="nonzero">
                        <path d="M6.56403944,52.9801115 L26.4345356,52.9801115 C29.0642112,52.9801115 31.1951145,50.7233891 31.1951145,48.0753623 L32.3691603,22.3910814 L0.628880407,22.3910814 L1.80346056,48.0753623 C1.80341603,50.7233891 3.93503181,52.9801115 6.56403944,52.9801115 Z M21.4984097,27.3728428 L24.6133651,27.3728428 L24.6133651,47.9983501 L21.4984097,47.9983501 L21.4984097,27.3728428 Z M18.3834097,27.3728428 L18.3834097,47.9983501 L14.61757,47.9983501 L14.61757,27.3728428 L18.3834097,27.3728428 Z M11.5026145,27.3728428 L11.5026145,47.9983501 L8.38765903,47.9983501 L8.38765903,27.3728428 L11.5026145,27.3728428 Z M34.3470903,15.5728543 L25.4133221,10.4149408 C25.4133221,10.4149408 26.3576749,7.35816684 25.5983601,6.91977625 L20.1009444,3.74584177 C19.3422081,3.30778516 17.1666393,5.65371622 17.1666393,5.65371622 L8.23387369,0.49638161 C7.09494011,-0.161182003 5.59665265,0.302935625 4.93477974,1.44933313 C4.27261698,2.59623268 3.68131263,3.62040186 3.68131263,3.62040186 L33.9190469,21.0781659 C33.9190469,21.0781659 34.5103735,20.0539581 35.172514,18.9070971 C35.8343646,17.7607382 35.485484,16.2301062 34.3470903,15.5728543 Z" id="Shape"></path>
                    </g>
                </g>
            </g>
        </g>
    </g>
</svg>