<?xml version="1.0" encoding="UTF-8"?>
<svg width="24px" height="24px" viewBox="0 0 24 24" version="1.1" xmlns="http://www.w3.org/2000/svg" xmlns:xlink="http://www.w3.org/1999/xlink">
    <!-- Generator: Sketch 49 (51002) - http://www.bohemiancoding.com/sketch -->
    <title>性别-女</title>
    <desc>Created with Sketch.</desc>
    <defs></defs>
    <g id="1-前台功能" stroke="none" stroke-width="1" fill="none" fill-rule="evenodd">
        <g id="入场签到-前台大屏幕" transform="translate(-116.000000, -612.000000)">
            <g id="入场记录" transform="translate(20.000000, 121.000000)">
                <g id="1" transform="translate(10.000000, 469.000000)">
                    <g id="性别-女" transform="translate(86.000000, 22.000000)">
                        <circle id="Oval-3" fill="#F1A1D0" cx="12" cy="12" r="12"></circle>
                        <path d="M9.72589509,12.8521171 C7.83897956,10.9673348 9.19362667,7.74303437 11.8453784,7.74303437 C14.4953318,7.74303437 15.8535754,10.9655392 13.9648616,12.8521171 C13.3984273,13.4171328 12.6461786,13.7283703 11.8453784,13.7283703 C11.0445781,13.7283703 10.2923294,13.4171328 9.72589509,12.8521171 Z M11.8435802,6.54596719 C8.15006888,6.54596719 6.21699944,11.0499325 8.86994993,13.6984436 C9.53588486,14.3634144 10.6297924,14.7536583 11.2291937,14.8775548 L11.2291937,16.1518328 L9.43098962,16.1518328 L9.43098962,17.3489 L11.2291937,17.3489 L11.2291937,18.5459672 L12.4279965,18.5459672 L12.4279965,17.3489 L14.2262006,17.3489 L14.2262006,16.1518328 L12.4279965,16.1518328 L12.4279965,14.8775548 C13.6267992,14.7536583 14.1374892,14.3634144 14.8040235,13.6984436 C17.4563746,11.0499325 15.545483,6.54596719 11.8435802,6.54596719 Z" id="female-[#1363]" fill="#FFFFFF"></path>
                    </g>
                </g>
            </g>
        </g>
    </g>
</svg>