<?xml version="1.0" encoding="UTF-8"?>
<svg width="24px" height="24px" viewBox="0 0 24 24" version="1.1" xmlns="http://www.w3.org/2000/svg" xmlns:xlink="http://www.w3.org/1999/xlink">
    <!-- Generator: Sketch 49 (51002) - http://www.bohemiancoding.com/sketch -->
    <title>性别-男</title>
    <desc>Created with Sketch.</desc>
    <defs></defs>
    <g id="1-前台功能" stroke="none" stroke-width="1" fill="none" fill-rule="evenodd">
        <g id="入场签到-前台大屏幕" transform="translate(-116.000000, -744.000000)">
            <g id="入场记录" transform="translate(20.000000, 121.000000)">
                <g id="1" transform="translate(10.000000, 601.000000)">
                    <g id="性别-男" transform="translate(86.000000, 22.000000)">
                        <circle id="Oval-3" fill="#51A9CA" cx="12" cy="12" r="12"></circle>
                        <path d="M10.8148148,16.1511111 C9.18103704,16.1511111 7.85185185,14.8219259 7.85185185,13.1881481 C7.85185185,11.5543704 9.18103704,10.2251852 10.8148148,10.2251852 C12.4485926,10.2251852 13.7777778,11.5543704 13.7777778,13.1881481 C13.7777778,14.8219259 12.4485926,16.1511111 10.8148148,16.1511111 L10.8148148,16.1511111 Z M12.5925926,6.66666667 L12.5925926,7.85185185 L15.3102222,7.85185185 L13.2954074,9.86785185 C12.6032593,9.34933333 11.7463704,9.03940741 10.8148148,9.03940741 C8.52385185,9.03940741 6.66666667,10.8965926 6.66666667,13.1875556 C6.66666667,15.4785185 8.52385185,17.3362963 10.8148148,17.3362963 C13.1057778,17.3362963 14.962963,15.4791111 14.962963,13.1881481 C14.962963,12.2565926 14.6518519,11.3997037 14.1339259,10.706963 L16.1481481,8.69274074 L16.1481481,11.4074074 L17.3333333,11.4074074 L17.3333333,6.66666667 L12.5925926,6.66666667 Z" id="male-[#1364]" fill="#FFFFFF"></path>
                    </g>
                </g>
            </g>
        </g>
    </g>
</svg>